{
    "asset": {
        "version": "2.0",
        "generator": "babylon.js glTF exporter for 3ds max 2017 v1.3.33"
    },
    "scene": 0,
    "scenes": [
        {
            "nodes": [
                0,
                1,
                2,
                3
            ],
            "extensions": {}
        }
    ],
    "nodes": [
        {
            "mesh": 0,
            "translation": [
                -7.378446E-08,
                36.9263268,
                0.0
            ],
            "rotation": [
                -0.500871,
                0.4991257,
                0.5008728,
                -0.499127448
            ],
            "scale": [
                1.0,
                1.0,
                1.0
            ],
            "name": "NGon003"
        },
        {
            "translation": [
                9.536743E-07,
                37.44679,
                -2.04574418
            ],
            "rotation": [
                0.0,
                0.0,
                0.0,
                1.0
            ],
            "scale": [
                1.0,
                1.0,
                1.0
            ],
            "name": "PhysCamera001.Target"
        },
        {
            "translation": [
                -0.51829344,
                82.45839,
                52.1436539
            ],
            "rotation": [
                0.707106769,
                0.0,
                0.0,
                0.707106769
            ],
            "scale": [
                1.0,
                1.0,
                1.0
            ],
            "name": "Omni001"
        },
        {
            "camera": 0,
            "translation": [
                1.90734863E-06,
                37.4467773,
                249.999435
            ],
            "rotation": [
                5.96046448E-08,
                1.891872E-09,
                0.0,
                0.99999994
            ],
            "scale": [
                1.0,
                1.0,
                1.0
            ],
            "name": "PhysCamera001"
        }
    ],
    "cameras": [
        {
            "perspective": {
                "yfov": 0.602421165,
                "zfar": 10000.0,
                "znear": 0.1
            },
            "type": "perspective",
            "name": "PhysCamera001"
        }
    ],
    "meshes": [
        {
            "primitives": [
                {
                    "attributes": {
                        "POSITION": 1,
                        "TANGENT": 2,
                        "NORMAL": 3,
                        "TEXCOORD_0": 4
                    },
                    "indices": 0,
                    "mode": 4,
                    "material": 0
                },
                {
                    "attributes": {
                        "POSITION": 6,
                        "TANGENT": 7,
                        "NORMAL": 8,
                        "TEXCOORD_0": 9
                    },
                    "indices": 5,
                    "mode": 4,
                    "material": 1
                }
            ],
            "name": "NGon003"
        }
    ],
    "accessors": [
        {
            "bufferView": 0,
            "componentType": 5123,
            "count": 2760,
            "type": "SCALAR",
            "name": "accessorIndices"
        },
        {
            "bufferView": 1,
            "componentType": 5126,
            "count": 2760,
            "max": [
                36.926548,
                0.7874015,
                31.9781456
            ],
            "min": [
                -36.9265442,
                -0.787401438,
                -31.9781418
            ],
            "type": "VEC3",
            "name": "accessorPositions"
        },
        {
            "bufferView": 2,
            "componentType": 5126,
            "count": 2760,
            "type": "VEC4",
            "name": "accessorTangents"
        },
        {
            "bufferView": 1,
            "byteOffset": 33120,
            "componentType": 5126,
            "count": 2760,
            "type": "VEC3",
            "name": "accessorNormals"
        },
        {
            "bufferView": 3,
            "componentType": 5126,
            "count": 2760,
            "type": "VEC2",
            "name": "accessorUVs"
        },
        {
            "bufferView": 0,
            "byteOffset": 5520,
            "componentType": 5123,
            "count": 696,
            "type": "SCALAR",
            "name": "accessorIndices"
        },
        {
            "bufferView": 1,
            "byteOffset": 66240,
            "componentType": 5126,
            "count": 696,
            "max": [
                36.926548,
                0.787401438,
                31.9781456
            ],
            "min": [
                -36.9265442,
                -0.787401438,
                -31.9781418
            ],
            "type": "VEC3",
            "name": "accessorPositions"
        },
        {
            "bufferView": 2,
            "byteOffset": 44160,
            "componentType": 5126,
            "count": 696,
            "type": "VEC4",
            "name": "accessorTangents"
        },
        {
            "bufferView": 1,
            "byteOffset": 74592,
            "componentType": 5126,
            "count": 696,
            "type": "VEC3",
            "name": "accessorNormals"
        },
        {
            "bufferView": 3,
            "byteOffset": 22080,
            "componentType": 5126,
            "count": 696,
            "type": "VEC2",
            "name": "accessorUVs"
        },
        {
            "bufferView": 4,
            "componentType": 5126,
            "count": 49,
            "max": [
                3.33333325
            ],
            "min": [
                0.0
            ],
            "type": "SCALAR",
            "name": "accessorAnimationInput"
        },
        {
            "bufferView": 5,
            "componentType": 5126,
            "count": 49,
            "type": "VEC4",
            "name": "accessorAnimationRotations"
        }
    ],
    "bufferViews": [
        {
            "buffer": 0,
            "byteLength": 6912,
            "name": "bufferViewScalar"
        },
        {
            "buffer": 0,
            "byteOffset": 6912,
            "byteLength": 82944,
            "byteStride": 12,
            "name": "bufferViewFloatVec3"
        },
        {
            "buffer": 0,
            "byteOffset": 89856,
            "byteLength": 55296,
            "byteStride": 16,
            "name": "bufferViewFloatVec4"
        },
        {
            "buffer": 0,
            "byteOffset": 145152,
            "byteLength": 27648,
            "byteStride": 8,
            "name": "bufferViewFloatVec2"
        },
        {
            "buffer": 0,
            "byteOffset": 172800,
            "byteLength": 196,
            "name": "bufferViewAnimationFloatScalar"
        },
        {
            "buffer": 0,
            "byteOffset": 172996,
            "byteLength": 784,
            "name": "bufferViewAnimationFloatVec4"
        }
    ],
    "buffers": [
        {
            "uri": "QB_LOGO.bin",
            "byteLength": 173780
        }
    ],
    "materials": [
        {
            "pbrMetallicRoughness": {
                "baseColorFactor": [
                    0.5,
                    0.5,
                    0.5,
                    1.0
                ],
                "baseColorTexture": {
                    "index": 1,
                    "texCoord": 0
                },
                "metallicFactor": 1.0,
                "roughnessFactor": 0.2
            },
            "normalTexture": {
                "index": 0,
                "texCoord": 0
            },
            "emissiveFactor": [
                0.0,
                0.0,
                0.0
            ],
            "alphaMode": "BLEND",
            "name": "02 - Default"
        },
        {
            "pbrMetallicRoughness": {
                "baseColorFactor": [
                    0.5,
                    0.5,
                    0.5,
                    1.0
                ],
                "metallicFactor": 0.0,
                "roughnessFactor": 0.0
            },
            "emissiveFactor": [
                0.0,
                0.0,
                0.0
            ],
            "alphaMode": "OPAQUE",
            "name": "Material #38"
        }
    ],
    "textures": [
        {
            "sampler": 0,
            "source": 0,
            "name": "QB_logo_h.png"
        },
        {
            "sampler": 0,
            "source": 1,
            "name": "QB_logo_d.png"
        }
    ],
    "images": [
        {
            "uri": "QB_logo_h.png"
        },
        {
            "uri": "QB_logo_d.png"
        }
    ],
    "samplers": [
        {
            "magFilter": 9729,
            "minFilter": 9987,
            "wrapS": 10497,
            "wrapT": 10497
        }
    ],
    "animations": [
        {
            "channels": [
                {
                    "sampler": 0,
                    "target": {
                        "node": 0,
                        "path": "rotation"
                    }
                }
            ],
            "samplers": [
                {
                    "input": 10,
                    "interpolation": "LINEAR",
                    "output": 11
                }
            ],
            "name": "All Animations"
        }
    ]
}