{
  "asset": {
    "version": "2.0",
    "generator": "babylon.js glTF exporter for 3ds max 2017 v1.3.33"
  },
  "scene": 0,
  "scenes": [
    {
      "nodes": [
        0,
        1,
        2,
        3
      ],
      "extensions": {}
    }
  ],
  "nodes": [
    {
      "mesh": 0,
      "translation": [
        0.231541291,
        0,
        -148.9443
      ],
      "rotation": [
        0,
        0,
        0,
        1
      ],
      "scale": [
        1,
        1,
        1
      ],
      "name": "Cylinder001"
    },
    {
      "mesh": 1,
      "translation": [
        52.00652,
        162.769867,
        -149.175842
      ],
      "rotation": [
        0.7071068,
        0,
        0,
        0.7071067
      ],
      "scale": [
        1,
        1,
        1
      ],
      "name": "Plane002"
    },
    {
      "translation": [
        1.71417379,
        159.384,
        -327.7532
      ],
      "rotation": [
        0.49999997,
        -0.50000006,
        0.5000001,
        0.49999997
      ],
      "scale": [
        1,
        1,
        1
      ],
      "name": "PhysCamera001.Target"
    },
    {
      "translation": [
        0,
        0,
        0
      ],
      "rotation": [
        0,
        0,
        0,
        1
      ],
      "scale": [
        1,
        1,
        1
      ],
      "name": "Default light"
    }
  ],
  "meshes": [
    {
      "primitives": [
        {
          "attributes": {
            "POSITION": 1,
            "TANGENT": 2,
            "NORMAL": 3,
            "TEXCOORD_0": 4
          },
          "indices": 0,
          "mode": 4,
          "material": 0
        }
      ],
      "name": "Cylinder001"
    },
    {
      "primitives": [
        {
          "attributes": {
            "POSITION": 6,
            "TANGENT": 7,
            "NORMAL": 8,
            "TEXCOORD_0": 9
          },
          "indices": 5,
          "mode": 4,
          "material": 1
        }
      ],
      "name": "Plane002"
    }
  ],
  "accessors": [
    {
      "bufferView": 0,
      "componentType": 5123,
      "count": 216,
      "type": "SCALAR",
      "name": "accessorIndices"
    },
    {
      "bufferView": 1,
      "componentType": 5126,
      "count": 216,
      "max": [
        1.1811024,
        196.850388,
        1.16316223
      ],
      "min": [
        -1.1811024,
        0,
        -1.16316223
      ],
      "type": "VEC3",
      "name": "accessorPositions"
    },
    {
      "bufferView": 2,
      "componentType": 5126,
      "count": 216,
      "type": "VEC4",
      "name": "accessorTangents"
    },
    {
      "bufferView": 1,
      "byteOffset": 2592,
      "componentType": 5126,
      "count": 216,
      "type": "VEC3",
      "name": "accessorNormals"
    },
    {
      "bufferView": 3,
      "componentType": 5126,
      "count": 216,
      "type": "VEC2",
      "name": "accessorUVs"
    },
    {
      "bufferView": 0,
      "byteOffset": 432,
      "componentType": 5123,
      "count": 5400,
      "type": "SCALAR",
      "name": "accessorIndices"
    },
    {
      "bufferView": 1,
      "byteOffset": 5184,
      "componentType": 5126,
      "count": 5400,
      "max": [
        40.8056068,
        39.18621,
        31.5980988
      ],
      "min": [
        -49.8125954,
        -0.0275115967,
        -22.3592072
      ],
      "type": "VEC3",
      "name": "accessorPositions"
    },
    {
      "bufferView": 2,
      "byteOffset": 3456,
      "componentType": 5126,
      "count": 5400,
      "type": "VEC4",
      "name": "accessorTangents"
    },
    {
      "bufferView": 1,
      "byteOffset": 69984,
      "componentType": 5126,
      "count": 5400,
      "type": "VEC3",
      "name": "accessorNormals"
    },
    {
      "bufferView": 3,
      "byteOffset": 1728,
      "componentType": 5126,
      "count": 5400,
      "type": "VEC2",
      "name": "accessorUVs"
    }
  ],
  "bufferViews": [
    {
      "buffer": 0,
      "byteLength": 11232,
      "name": "bufferViewScalar",
      "byteOffset": 0
    },
    {
      "buffer": 0,
      "byteOffset": 11232,
      "byteLength": 134784,
      "byteStride": 12,
      "name": "bufferViewFloatVec3"
    },
    {
      "buffer": 0,
      "byteOffset": 146016,
      "byteLength": 89856,
      "byteStride": 16,
      "name": "bufferViewFloatVec4"
    },
    {
      "buffer": 0,
      "byteOffset": 235872,
      "byteLength": 44928,
      "byteStride": 8,
      "name": "bufferViewFloatVec2"
    }
  ],
  "buffers": [
    {
      "uri": "Flag_Algeria_data.bin",
      "byteLength": 280800
    }
  ],
  "materials": [
    {
      "pbrMetallicRoughness": {
        "baseColorFactor": [
          0.09019608,
          0.168627456,
          0.117647067,
          1
        ],
        "metallicFactor": 0,
        "roughnessFactor": 0.2
      },
      "emissiveFactor": [
        0,
        0,
        0
      ],
      "alphaMode": "OPAQUE",
      "name": "Material #26"
    },
    {
      "pbrMetallicRoughness": {
        "baseColorFactor": [
          1,
          1,
          1,
          1
        ],
        "baseColorTexture": {
          "index": 0,
          "texCoord": 0
        },
        "metallicFactor": 0,
        "roughnessFactor": 0.9
      },
      "emissiveFactor": [
        0,
        0,
        0
      ],
      "alphaMode": "BLEND",
      "doubleSided": true,
      "name": "Material #33"
    }
  ],
  "textures": [
    {
      "sampler": 0,
      "source": 0,
      "name": "Flag_of_Algeria.svg.png"
    }
  ],
  "images": [
    {
      "uri": "Flag_Algeria_img0.png"
    }
  ],
  "samplers": [
    {
      "magFilter": 9729,
      "minFilter": 9987,
      "wrapS": 10497,
      "wrapT": 10497
    }
  ]
}