<?xml version="1.0" encoding="UTF-8" standalone="no"?>
<!-- Created with Inkscape (http://www.inkscape.org/) -->

<svg
   xmlns:dc="http://purl.org/dc/elements/1.1/"
   xmlns:cc="http://creativecommons.org/ns#"
   xmlns:rdf="http://www.w3.org/1999/02/22-rdf-syntax-ns#"
   xmlns:svg="http://www.w3.org/2000/svg"
   xmlns="http://www.w3.org/2000/svg"
   xmlns:sodipodi="http://sodipodi.sourceforge.net/DTD/sodipodi-0.dtd"
   xmlns:inkscape="http://www.inkscape.org/namespaces/inkscape"
   width="128"
   height="128"
   viewBox="0 0 33.866675 33.866667"
   version="1.1"
   id="svg8"
   inkscape:version="0.92.2 (5c3e80d, 2017-08-06)"
   sodipodi:docname="QB_logo_white.svg">
  <title
     id="title4515">QBLogo</title>
  <defs
     id="defs2">
    <filter
       style="color-interpolation-filters:sRGB"
       inkscape:label="Drop Shadow"
       id="filter5196">
      <feFlood
         flood-opacity="0.498039"
         flood-color="rgb(0,0,0)"
         result="flood"
         id="feFlood5186" />
      <feComposite
         in="flood"
         in2="SourceGraphic"
         operator="in"
         result="composite1"
         id="feComposite5188" />
      <feGaussianBlur
         in="composite1"
         stdDeviation="0.6"
         result="blur"
         id="feGaussianBlur5190" />
      <feOffset
         dx="0.2"
         dy="0.2"
         result="offset"
         id="feOffset5192" />
      <feComposite
         in="SourceGraphic"
         in2="offset"
         operator="over"
         result="fbSourceGraphic"
         id="feComposite5194" />
      <feColorMatrix
         result="fbSourceGraphicAlpha"
         in="fbSourceGraphic"
         values="0 0 0 -1 0 0 0 0 -1 0 0 0 0 -1 0 0 0 0 1 0"
         id="feColorMatrix5198" />
      <feFlood
         id="feFlood5200"
         flood-opacity="0.498039"
         flood-color="rgb(0,0,0)"
         result="flood"
         in="fbSourceGraphic" />
      <feComposite
         in2="fbSourceGraphic"
         id="feComposite5202"
         in="flood"
         operator="in"
         result="composite1" />
      <feGaussianBlur
         id="feGaussianBlur5204"
         in="composite1"
         stdDeviation="0.6"
         result="blur" />
      <feOffset
         id="feOffset5206"
         dx="0.2"
         dy="0.2"
         result="offset" />
      <feComposite
         in2="offset"
         id="feComposite5208"
         in="fbSourceGraphic"
         operator="over"
         result="composite2" />
    </filter>
  </defs>
  <sodipodi:namedview
     id="base"
     pagecolor="#ffffff"
     bordercolor="#666666"
     borderopacity="1.0"
     inkscape:pageopacity="0.0"
     inkscape:pageshadow="2"
     inkscape:zoom="3.959798"
     inkscape:cx="73.447096"
     inkscape:cy="31.525574"
     inkscape:document-units="px"
     inkscape:current-layer="g4860"
     showgrid="true"
     inkscape:window-width="1785"
     inkscape:window-height="1057"
     inkscape:window-x="127"
     inkscape:window-y="-8"
     inkscape:window-maximized="1"
     units="px"
     inkscape:pagecheckerboard="false">
    <inkscape:grid
       type="axonomgrid"
       id="grid4519"
       units="mm"
       empspacing="5" />
  </sodipodi:namedview>
  <metadata
     id="metadata5">
    <rdf:RDF>
      <cc:Work
         rdf:about="">
        <dc:format>image/svg+xml</dc:format>
        <dc:type
           rdf:resource="http://purl.org/dc/dcmitype/StillImage" />
        <dc:title>QBLogo</dc:title>
      </cc:Work>
    </rdf:RDF>
  </metadata>
  <g
     inkscape:label="Layer 1"
     inkscape:groupmode="layer"
     id="layer1"
     transform="translate(0,-263.13335)">
    <g
       id="g4860"
       transform="matrix(0.93872127,0,0,0.80317012,0.62888641,54.299952)"
       style="filter:url(#filter5196)">
      <path
         inkscape:connector-curvature="0"
         d="m 17.302734,270.76758 c -2.956552,1.68071 -5.954577,3.36453 -8.8510378,5.13218 -0.079998,0.5082 0.753078,0.53629 1.0210805,0.83715 1.4712313,0.82039 2.9088803,1.73664 4.4000773,2.50024 0.42228,-0.0666 0.14223,-0.59583 -0.178571,-0.59909 C 12.171189,277.75871 10.648094,276.87935 9.125,276 c 2.731891,-1.57726 5.463417,-3.15516 8.195312,-4.73242 2.732381,1.57754 5.464886,3.15487 8.197266,4.73242 -1.63987,0.97587 -3.346551,1.874 -4.947076,2.89572 -0.153246,0.39911 0.445049,0.42079 0.608273,0.14476 1.659858,-0.99233 3.398752,-1.89522 5.012103,-2.94029 0.09417,-0.57225 -0.905342,-0.57307 -1.17575,-0.92636 -2.575376,-1.45315 -5.115096,-3.01897 -7.712394,-4.40625 z m 8.671875,5 c -1.521867,0.8331 -3.07223,1.70329 -4.53692,2.62809 -0.160577,0.36296 0.425385,0.4559 0.578686,0.1618 1.140867,-0.43259 3.058676,-2.21178 3.731672,-1.83375 0,3.04781 0,6.09561 0,9.14342 -2.731613,1.5771 -5.463704,3.15337 -8.195313,4.73047 -0.0266,-1.90724 0.05182,-3.83466 -0.03671,-5.73005 -0.269987,-0.3274 -0.58279,0.17635 -0.428131,0.45387 0.02854,1.93358 -0.05605,3.88999 0.04046,5.80991 0.448257,0.3694 0.950321,-0.49784 1.39168,-0.55517 2.545777,-1.50453 5.171814,-2.91851 7.670508,-4.47629 0.04005,-3.38937 0.03196,-6.79963 0.004,-10.19043 -0.03546,-0.0866 -0.126386,-0.14526 -0.219914,-0.14187 z m 0,-10 c -2.964039,1.65847 -5.935279,3.37162 -8.851702,5.11173 -0.152285,0.58161 0.903618,0.59566 1.164699,0.94681 2.575846,1.45242 5.113349,3.01984 7.711805,4.40473 0.478621,-0.18632 0.08714,-0.91967 0.21348,-1.30229 -0.0195,-3.01167 0.03867,-6.03629 -0.02848,-9.04003 -0.04027,-0.0754 -0.124383,-0.12388 -0.209802,-0.12095 z m -0.226562,0.63476 c 0,3.06511 0,6.13021 0,9.19532 -2.654336,-1.53249 -5.308555,-3.06517 -7.962891,-4.59766 2.654336,-1.53249 5.308555,-3.06517 7.962891,-4.59766 z m -17.0937501,9.36524 c -2.9645162,1.65877 -5.9367556,3.37132 -8.85365544,5.11173 -0.15228218,0.58164 0.90367726,0.59567 1.16478275,0.94681 2.57640929,1.45252 5.11476209,3.01955 7.71367529,4.40472 0.4786187,-0.18632 0.08714,-0.91966 0.2134786,-1.30228 -0.019504,-3.01167 0.038668,-6.03629 -0.02848,-9.04003 -0.040267,-0.0754 -0.124382,-0.12388 -0.2098012,-0.12095 z m -0.2265625,0.63476 c 0,3.06511 0,6.13021 0,9.19532 C 5.7733985,284.06517 3.1191795,282.53249 0.46484375,281 3.1191795,279.46751 5.7733985,277.93483 8.4277344,276.40234 Z m 17.5351566,-0.63476 c -0.481011,0.18421 -0.08815,0.92119 -0.214844,1.30386 0.0194,3.0117 -0.03847,6.03624 0.02833,9.04007 0.427148,0.42445 0.969012,-0.48499 1.403805,-0.53534 2.546022,-1.5043 5.171336,-2.91895 7.67085,-4.47598 0.09417,-0.57225 -0.905342,-0.57307 -1.17575,-0.92636 -2.575376,-1.45315 -5.115096,-3.01897 -7.712393,-4.40625 z m 0.25,0.63476 c 2.654825,1.53277 5.310018,3.06489 7.964843,4.59766 -2.654825,1.53277 -5.310018,3.06489 -7.964843,4.59766 0,-3.06511 0,-6.13021 0,-9.19532 z m -26.23046913,4.36524 c -0.48101035,0.18421 -0.08815144,0.92119 -0.21484375,1.30386 0.0194034,3.0117 -0.0384676,6.03624 0.0283319,9.04007 0.42714764,0.42445 0.96901253,-0.48499 1.40380488,-0.53534 2.5460227,-1.5043 5.1713364,-2.91895 7.6708506,-4.47598 0.094165,-0.57225 -0.9053413,-0.57307 -1.1757495,-0.92636 -2.5753762,-1.45315 -5.1150968,-3.01897 -7.71239413,-4.40625 z m 0.25000001,0.63476 C 2.8872472,282.93511 5.5424405,284.46723 8.1972656,286 c -2.6548251,1.53277 -5.3100184,3.06489 -7.96484372,4.59766 0,-3.06511 0,-6.13021 0,-9.19532 z m 8.41015622,4.36524 c -0.4810103,0.18421 -0.088151,0.92119 -0.2148437,1.30386 0.019403,3.0117 -0.038468,6.03624 0.028332,9.04007 0.4271477,0.42445 0.9690126,-0.48499 1.403805,-0.53534 2.5460226,-1.5043 5.1713366,-2.91895 7.6708506,-4.47598 0.09417,-0.57225 -0.905342,-0.57307 -1.17575,-0.92636 -2.575376,-1.45315 -5.115097,-3.01897 -7.7123939,-4.40625 z m 0.25,0.63476 c 2.6548249,1.53277 5.3100189,3.06489 7.9648439,4.59766 -2.654825,1.53277 -5.310019,3.06489 -7.9648439,4.59766 0,-3.06511 0,-6.13021 0,-9.19532 z M 25.962891,265.76758 c -0.481011,0.18421 -0.08815,0.92119 -0.214844,1.30386 0.0194,3.0117 -0.03847,6.03624 0.02833,9.04007 0.427148,0.42445 0.969012,-0.48499 1.403805,-0.53534 2.546022,-1.5043 5.171336,-2.91895 7.67085,-4.47598 0.09417,-0.57225 -0.905342,-0.57307 -1.17575,-0.92636 -2.575376,-1.45315 -5.115096,-3.01897 -7.712393,-4.40625 z m 0.25,0.63476 c 2.654825,1.53277 5.310018,3.06489 7.964843,4.59766 -2.654825,1.53277 -5.310018,3.06489 -7.964843,4.59766 0,-3.06511 0,-6.13021 0,-9.19532 z m -8.910157,-5.63476 c -0.481009,0.18421 -0.08815,0.92119 -0.214843,1.30386 0.0194,3.0117 -0.03847,6.03624 0.02833,9.04007 0.427148,0.42445 0.969012,-0.48499 1.403805,-0.53534 2.546022,-1.5043 5.171336,-2.91895 7.67085,-4.47598 0.09417,-0.57225 -0.905342,-0.57307 -1.17575,-0.92636 -2.575376,-1.45315 -5.115096,-3.01897 -7.712394,-4.40625 z m 0.25,0.63476 c 2.654825,1.53277 5.310019,3.06489 7.964844,4.59766 -2.654825,1.53277 -5.310019,3.06489 -7.964844,4.59766 0,-3.06511 0,-6.13021 0,-9.19532 z m 8.410157,24.36524 c -0.481011,0.18421 -0.08815,0.92119 -0.214844,1.30386 0.0194,3.0117 -0.03847,6.03624 0.02833,9.04007 0.427148,0.42445 0.969012,-0.48499 1.403805,-0.53534 2.546022,-1.5043 5.171336,-2.91895 7.67085,-4.47598 0.09417,-0.57225 -0.905342,-0.57307 -1.17575,-0.92636 -2.575376,-1.45315 -5.115096,-3.01897 -7.712393,-4.40625 z m 0.25,0.63476 c 2.654825,1.53277 5.310018,3.06489 7.964843,4.59766 -2.654825,1.53277 -5.310018,3.06489 -7.964843,4.59766 0,-3.06511 0,-6.13021 0,-9.19532 z M 8.6542969,265.76758 c -2.9645162,1.65877 -5.9367556,3.37132 -8.85365544,5.11173 -0.15228218,0.58164 0.9036773,0.59567 1.1647828,0.94681 2.57640934,1.45252 5.11476204,3.01955 7.71367524,4.40472 0.4786187,-0.18632 0.08714,-0.91966 0.2134786,-1.30228 -0.019504,-3.01167 0.038668,-6.03629 -0.02848,-9.04003 -0.040267,-0.0754 -0.124382,-0.12388 -0.2098012,-0.12095 z m -0.2265625,0.63476 c 0,3.06511 0,6.13021 0,9.19532 C 5.7733985,274.06517 3.1191795,272.53249 0.46484375,271 3.1191795,269.46751 5.7733985,267.93483 8.4277344,266.40234 Z m 26.2070316,14.36524 c -2.964039,1.65847 -5.935279,3.37162 -8.851703,5.11173 -0.152285,0.58161 0.903618,0.59566 1.164699,0.94681 2.575847,1.45242 5.113349,3.01984 7.711807,4.40472 0.478618,-0.18632 0.08714,-0.91966 0.213478,-1.30228 -0.0195,-3.01167 0.03867,-6.03629 -0.02848,-9.04003 -0.04027,-0.0754 -0.124382,-0.12388 -0.209801,-0.12095 z m -0.226563,0.63476 c 0,3.06511 0,6.13021 0,9.19532 -2.654336,-1.53249 -5.308555,-3.06517 -7.962891,-4.59766 2.654336,-1.53249 5.308555,-3.06517 7.962891,-4.59766 z m -17.09375,9.36524 c -2.964039,1.65847 -5.935279,3.37162 -8.8517021,5.11173 -0.1522846,0.58161 0.9036182,0.59566 1.1646988,0.94681 2.5758463,1.45242 5.1133493,3.01984 7.7118063,4.40472 0.478618,-0.18632 0.08714,-0.91966 0.213478,-1.30228 -0.0195,-3.01167 0.03867,-6.03629 -0.02848,-9.04003 -0.04027,-0.0754 -0.124382,-0.12388 -0.209801,-0.12095 z m -0.226562,0.63476 c 0,3.06511 0,6.13021 0,9.19532 C 14.433555,299.06517 11.779336,297.53249 9.125,296 c 2.654336,-1.53249 5.308555,-3.06517 7.962891,-4.59766 z m 8.886718,-5.63476 c -2.964039,1.65847 -5.935279,3.37162 -8.851702,5.11173 -0.152285,0.58161 0.903618,0.59566 1.164699,0.94681 2.575846,1.45242 5.113349,3.01984 7.711805,4.40473 0.478621,-0.18632 0.08714,-0.91967 0.21348,-1.30229 -0.0195,-3.01167 0.03867,-6.03629 -0.02848,-9.04003 -0.04027,-0.0754 -0.124383,-0.12388 -0.209802,-0.12095 z m -0.226562,0.63476 c 0,3.06511 0,6.13021 0,9.19532 -2.654336,-1.53249 -5.308555,-3.06517 -7.962891,-4.59766 2.654336,-1.53249 5.308555,-3.06517 7.962891,-4.59766 z m -8.445313,4.36524 c -0.481009,0.18421 -0.08815,0.92119 -0.214843,1.30386 0.0194,3.0117 -0.03847,6.03624 0.02833,9.04007 0.427148,0.42445 0.969012,-0.48499 1.403805,-0.53534 2.546022,-1.5043 5.171336,-2.91895 7.67085,-4.47598 0.09417,-0.57225 -0.905342,-0.57307 -1.17575,-0.92636 -2.575376,-1.45315 -5.115096,-3.01897 -7.712394,-4.40625 z m 0.25,0.63476 c 2.654825,1.53277 5.310019,3.06489 7.964844,4.59766 -2.654825,1.53277 -5.310019,3.06489 -7.964844,4.59766 0,-3.06511 0,-6.13021 0,-9.19532 z M 8.6425781,265.76758 c -0.4810103,0.18421 -0.088151,0.92119 -0.2148437,1.30386 0.019403,3.0117 -0.038468,6.03624 0.028332,9.04007 0.4271477,0.42445 0.9690126,-0.48499 1.403805,-0.53534 2.5460226,-1.5043 5.1713366,-2.91895 7.6708506,-4.47598 0.09417,-0.57225 -0.905342,-0.57307 -1.17575,-0.92636 -2.575376,-1.45315 -5.115097,-3.01897 -7.7123939,-4.40625 z m 0.25,0.63476 c 2.6548249,1.53277 5.3100189,3.06489 7.9648439,4.59766 -2.654825,1.53277 -5.310019,3.06489 -7.9648439,4.59766 0,-3.06511 0,-6.13021 0,-9.19532 z m 8.4218749,-5.63476 c -2.964039,1.65847 -5.935279,3.37162 -8.8517021,5.11173 -0.1522846,0.58161 0.9036182,0.59566 1.1646987,0.94681 2.5758464,1.45242 5.1133494,3.01984 7.7118064,4.40472 0.478618,-0.18632 0.08714,-0.91966 0.213478,-1.30228 -0.0195,-3.01167 0.03867,-6.03629 -0.02848,-9.04003 -0.04027,-0.0754 -0.124382,-0.12388 -0.209801,-0.12095 z m -0.226562,0.63476 c 0,3.06511 0,6.13021 0,9.19532 C 14.433555,269.06517 11.779336,267.53249 9.125,266 c 2.654336,-1.53249 5.308555,-3.06517 7.962891,-4.59766 z m 0.214843,-0.63476 c -5.843819,3.33751 -11.7029492,6.70242 -17.50182227,10.11201 -0.0782189,4.24232 -0.0107823,8.51103 -0.0333336,12.76343 0.0281275,2.49315 -0.0554689,5.00878 0.0403903,7.48834 5.81012467,3.39465 11.65664857,6.78182 17.50789257,10.10087 5.853307,-3.29561 11.672603,-6.71019 17.496046,-10.07469 0.159736,-0.90979 0.0079,-1.89946 0.06114,-2.83615 -0.01898,-5.80938 0.03787,-11.63135 -0.02828,-17.43292 -5.779945,-3.42206 -11.647326,-6.75272 -17.471821,-10.11539 -0.02293,-0.005 -0.04681,-0.007 -0.07022,-0.005 z m 0.01758,0.5 c 5.695899,3.28852 11.391992,6.57671 17.087891,9.86523 0,6.57813 0,13.15625 0,19.73438 -5.695898,3.28852 -11.391993,6.57671 -17.087891,9.86523 -5.696182,-3.28868 -11.391712,-6.5785 -17.08789012,-9.86719 0,-6.57682 0,-13.15364 0,-19.73046 5.69617792,-3.28869 11.39170712,-6.57851 17.08789012,-9.86719 z"
         style="color:#000000;font-style:normal;font-variant:normal;font-weight:normal;font-stretch:normal;font-size:medium;line-height:normal;font-family:sans-serif;font-variant-ligatures:normal;font-variant-position:normal;font-variant-caps:normal;font-variant-numeric:normal;font-variant-alternates:normal;font-feature-settings:normal;text-indent:0;text-align:start;text-decoration:none;text-decoration-line:none;text-decoration-style:solid;text-decoration-color:#000000;letter-spacing:normal;word-spacing:normal;text-transform:none;writing-mode:lr-tb;direction:ltr;text-orientation:mixed;dominant-baseline:auto;baseline-shift:baseline;text-anchor:start;white-space:normal;shape-padding:0;clip-rule:nonzero;display:inline;overflow:visible;visibility:visible;opacity:1;isolation:auto;mix-blend-mode:normal;color-interpolation:sRGB;color-interpolation-filters:linearRGB;solid-color:#000000;solid-opacity:1;vector-effect:none;fill:#ffffff;fill-opacity:1;fill-rule:nonzero;stroke:none;stroke-width:0.46500006;stroke-linecap:round;stroke-linejoin:round;stroke-miterlimit:4;stroke-dasharray:none;stroke-dashoffset:0;stroke-opacity:1;paint-order:normal;color-rendering:auto;image-rendering:auto;shape-rendering:auto;text-rendering:auto;enable-background:accumulate"
         id="path4685-6" />
      <text
         id="text4855"
         y="283.36752"
         x="12.586878"
         style="font-style:normal;font-weight:normal;font-size:10.58333492px;line-height:1.25;font-family:sans-serif;letter-spacing:0px;word-spacing:0px;fill:#000000;fill-opacity:1;stroke:none;stroke-width:0.26458338"
         xml:space="preserve"><tspan
           style="font-style:normal;font-variant:normal;font-weight:normal;font-stretch:normal;font-size:4.9388895px;font-family:'Good Times';-inkscape-font-specification:'Good Times';fill:#ffffff;fill-opacity:1;stroke-width:0.26458338"
           y="283.36752"
           x="12.586878"
           id="tspan4853"
           sodipodi:role="line">QB</tspan></text>
    </g>
  </g>
</svg>
