{"asset":{"version":"2.0","generator":"babylon.js glTF exporter for 3ds max 2017 v1.3.33"},"scene":0,"scenes":[{"nodes":[0,1,2,3,4,5,6,7,8,9,10],"extensions":{}}],"nodes":[{"mesh":0,"translation":[-0.5142241,0.177747011,0.386825442],"rotation":[-0.43045944,-0.5609855,0.560985565,-0.43045944],"scale":[0.99999994,0.99999994,1.0],"name":"SM_Coque"},{"mesh":1,"translation":[-0.5142241,0.1650083,0.386825442],"rotation":[-0.43045944,-0.5609855,0.560985565,-0.43045944],"scale":[0.99999994,0.99999994,1.0],"name":"SM_Screen"},{"mesh":2,"translation":[-0.4189849,1.33042836,0.3923099],"rotation":[-0.43045944,-0.5609855,0.560985565,-0.43045944],"scale":[0.99999994,0.99999994,1.0],"name":"SM_CarteMere"},{"mesh":3,"translation":[-0.4161363,2.02070355,0.619052649],"rotation":[-0.43045944,-0.5609855,0.560985565,-0.43045944],"scale":[0.99999994,0.99999994,1.0],"name":"SM_SOC"},{"mesh":4,"translation":[-0.678944051,1.99876332,-0.338795483],"rotation":[-0.43045944,-0.5609855,0.560985565,-0.43045944],"scale":[0.99999994,0.99999994,1.0],"name":"SM_Memoire"},{"mesh":5,"translation":[-0.4662755,-0.552700043,0.410229862],"rotation":[-0.43045944,-0.5609855,0.560985565,-0.43045944],"scale":[0.99999994,0.99999994,1.0],"name":"SM_Batterie"},{"mesh":6,"translation":[-0.382798672,3.116625,0.4183495],"rotation":[-0.43045944,-0.5609855,0.560985565,-0.4304594],"scale":[1.1161,1.1161,1.1161],"name":"SM_Front_Camera"},{"mesh":6,"translation":[-0.6839505,2.65096331,-0.9431146],"rotation":[0.5690205,-0.4323564,0.428102881,0.5531831],"scale":[1.48651421,1.39478278,1.49337411],"name":"SM_Rear_Camera1"},{"mesh":6,"translation":[-0.6839505,2.370642,-0.9431146],"rotation":[0.5690205,-0.4323564,0.428102881,0.5531831],"scale":[1.48651421,1.39478278,1.49337411],"name":"SM_Rear_Camera2"},{"mesh":7,"translation":[-0.5142241,-2.98048544,0.386825264],"rotation":[-0.43045944,-0.5609855,0.560985565,-0.43045944],"scale":[0.99999994,0.99999994,1.0],"name":"SM_USB"},{"translation":[0.0,0.0,0.0],"rotation":[0.0,0.0,0.0,1.0],"scale":[1.0,1.0,1.0],"name":"Default light"}],"meshes":[{"primitives":[{"attributes":{"POSITION":1,"TANGENT":2,"NORMAL":3,"TEXCOORD_0":4},"indices":0,"mode":4,"material":0}],"name":"SM_Coque"},{"primitives":[{"attributes":{"POSITION":6,"TANGENT":7,"NORMAL":8,"TEXCOORD_0":9},"indices":5,"mode":4,"material":1}],"name":"SM_Screen"},{"primitives":[{"attributes":{"POSITION":11,"TANGENT":12,"NORMAL":13,"TEXCOORD_0":14},"indices":10,"mode":4,"material":2}],"name":"SM_CarteMere"},{"primitives":[{"attributes":{"POSITION":16,"TANGENT":17,"NORMAL":18,"TEXCOORD_0":19},"indices":15,"mode":4,"material":3}],"name":"SM_SOC"},{"primitives":[{"attributes":{"POSITION":21,"TANGENT":22,"NORMAL":23,"TEXCOORD_0":24},"indices":20,"mode":4,"material":4}],"name":"SM_Memoire"},{"primitives":[{"attributes":{"POSITION":26,"TANGENT":27,"NORMAL":28,"TEXCOORD_0":29},"indices":25,"mode":4,"material":5}],"name":"SM_Batterie"},{"primitives":[{"attributes":{"POSITION":31,"TANGENT":32,"NORMAL":33,"TEXCOORD_0":34},"indices":30,"mode":4,"material":6}],"name":"SM_Front_Camera"},{"primitives":[{"attributes":{"POSITION":36,"TANGENT":37,"NORMAL":38,"TEXCOORD_0":39},"indices":35,"mode":4,"material":0}],"name":"SM_USB"}],"accessors":[{"bufferView":0,"componentType":5123,"count":8034,"type":"SCALAR","name":"accessorIndices"},{"bufferView":1,"componentType":5126,"count":8034,"max":[1.73546815,0.260522366,3.18864369],"min":[-1.73546827,-0.01968515,-3.17378664],"type":"VEC3","name":"accessorPositions"},{"bufferView":2,"componentType":5126,"count":8034,"type":"VEC4","name":"accessorTangents"},{"bufferView":1,"byteOffset":96408,"componentType":5126,"count":8034,"type":"VEC3","name":"accessorNormals"},{"bufferView":3,"componentType":5126,"count":8034,"type":"VEC2","name":"accessorUVs"},{"bufferView":0,"byteOffset":16068,"componentType":5123,"count":1596,"type":"SCALAR","name":"accessorIndices"},{"bufferView":1,"byteOffset":192816,"componentType":5126,"count":1596,"max":[1.66670275,0.276689172,3.10735941],"min":[-1.66670263,0.247518182,-3.10735941],"type":"VEC3","name":"accessorPositions"},{"bufferView":2,"byteOffset":128544,"componentType":5126,"count":1596,"type":"VEC4","name":"accessorTangents"},{"bufferView":1,"byteOffset":211968,"componentType":5126,"count":1596,"type":"VEC3","name":"accessorNormals"},{"bufferView":3,"byteOffset":64272,"componentType":5126,"count":1596,"type":"VEC2","name":"accessorUVs"},{"bufferView":0,"byteOffset":19260,"componentType":5123,"count":144,"type":"SCALAR","name":"accessorIndices"},{"bufferView":1,"byteOffset":231120,"componentType":5126,"count":144,"max":[1.56544769,0.019685179,-0.128485918],"min":[-1.510646,-0.000410854816,-1.82938218],"type":"VEC3","name":"accessorPositions"},{"bufferView":2,"byteOffset":154080,"componentType":5126,"count":144,"type":"VEC4","name":"accessorTangents"},{"bufferView":1,"byteOffset":232848,"componentType":5126,"count":144,"type":"VEC3","name":"accessorNormals"},{"bufferView":3,"byteOffset":77040,"componentType":5126,"count":144,"type":"VEC2","name":"accessorUVs"},{"bufferView":0,"byteOffset":19548,"componentType":5123,"count":36,"type":"SCALAR","name":"accessorIndices"},{"bufferView":1,"byteOffset":234576,"componentType":5126,"count":36,"max":[0.354203373,0.05112207,0.237352729],"min":[-0.3542034,0.0,-0.23735261],"type":"VEC3","name":"accessorPositions"},{"bufferView":2,"byteOffset":156384,"componentType":5126,"count":36,"type":"VEC4","name":"accessorTangents"},{"bufferView":1,"byteOffset":235008,"componentType":5126,"count":36,"type":"VEC3","name":"accessorNormals"},{"bufferView":3,"byteOffset":78192,"componentType":5126,"count":36,"type":"VEC2","name":"accessorUVs"},{"bufferView":0,"byteOffset":19620,"componentType":5123,"count":36,"type":"SCALAR","name":"accessorIndices"},{"bufferView":1,"byteOffset":235440,"componentType":5126,"count":36,"max":[0.3249907,0.0584252477,0.215443254],"min":[-0.3249907,-5.96046448E-08,-0.215443373],"type":"VEC3","name":"accessorPositions"},{"bufferView":2,"byteOffset":156960,"componentType":5126,"count":36,"type":"VEC4","name":"accessorTangents"},{"bufferView":1,"byteOffset":235872,"componentType":5126,"count":36,"type":"VEC3","name":"accessorNormals"},{"bufferView":3,"byteOffset":78480,"componentType":5126,"count":36,"type":"VEC2","name":"accessorUVs"},{"bufferView":0,"byteOffset":19692,"componentType":5123,"count":132,"type":"SCALAR","name":"accessorIndices"},{"bufferView":1,"byteOffset":236304,"componentType":5126,"count":132,"max":[1.4831233,0.120604068,1.92558575],"min":[-1.4831233,-1.1920929E-07,-1.92558575],"type":"VEC3","name":"accessorPositions"},{"bufferView":2,"byteOffset":157536,"componentType":5126,"count":132,"type":"VEC4","name":"accessorTangents"},{"bufferView":1,"byteOffset":237888,"componentType":5126,"count":132,"type":"VEC3","name":"accessorNormals"},{"bufferView":3,"byteOffset":78768,"componentType":5126,"count":132,"type":"VEC2","name":"accessorUVs"},{"bufferView":0,"byteOffset":19956,"componentType":5123,"count":1794,"type":"SCALAR","name":"accessorIndices"},{"bufferView":1,"byteOffset":239472,"componentType":5126,"count":1794,"max":[0.1092267,0.136985958,0.0934343338],"min":[-0.109226733,0.0,-0.0934340954],"type":"VEC3","name":"accessorPositions"},{"bufferView":2,"byteOffset":159648,"componentType":5126,"count":1794,"type":"VEC4","name":"accessorTangents"},{"bufferView":1,"byteOffset":261000,"componentType":5126,"count":1794,"type":"VEC3","name":"accessorNormals"},{"bufferView":3,"byteOffset":79824,"componentType":5126,"count":1794,"type":"VEC2","name":"accessorUVs"},{"bufferView":0,"byteOffset":23544,"componentType":5123,"count":4512,"type":"SCALAR","name":"accessorIndices"},{"bufferView":1,"byteOffset":282528,"componentType":5126,"count":4512,"max":[0.199501336,0.191620708,0.00639534],"min":[-0.1966142,0.0682145357,-0.2866826],"type":"VEC3","name":"accessorPositions"},{"bufferView":2,"byteOffset":188352,"componentType":5126,"count":4512,"type":"VEC4","name":"accessorTangents"},{"bufferView":1,"byteOffset":336672,"componentType":5126,"count":4512,"type":"VEC3","name":"accessorNormals"},{"bufferView":3,"byteOffset":94176,"componentType":5126,"count":4512,"type":"VEC2","name":"accessorUVs"},{"bufferView":4,"componentType":5126,"count":69,"max":[3.33333325],"min":[0.0],"type":"SCALAR","name":"accessorAnimationInput"},{"bufferView":5,"componentType":5126,"count":69,"type":"VEC3","name":"accessorAnimationPositions"},{"bufferView":4,"byteOffset":276,"componentType":5126,"count":51,"max":[3.33333325],"min":[0.0],"type":"SCALAR","name":"accessorAnimationInput"},{"bufferView":5,"byteOffset":828,"componentType":5126,"count":51,"type":"VEC3","name":"accessorAnimationPositions"},{"bufferView":4,"byteOffset":480,"componentType":5126,"count":31,"max":[3.33333325],"min":[0.0],"type":"SCALAR","name":"accessorAnimationInput"},{"bufferView":5,"byteOffset":1440,"componentType":5126,"count":31,"type":"VEC3","name":"accessorAnimationPositions"},{"bufferView":4,"byteOffset":604,"componentType":5126,"count":61,"max":[3.33333325],"min":[0.0],"type":"SCALAR","name":"accessorAnimationInput"},{"bufferView":5,"byteOffset":1812,"componentType":5126,"count":61,"type":"VEC3","name":"accessorAnimationPositions"},{"bufferView":4,"byteOffset":848,"componentType":5126,"count":54,"max":[3.33333325],"min":[0.0],"type":"SCALAR","name":"accessorAnimationInput"},{"bufferView":5,"byteOffset":2544,"componentType":5126,"count":54,"type":"VEC3","name":"accessorAnimationPositions"},{"bufferView":4,"byteOffset":1064,"componentType":5126,"count":67,"max":[3.33333325],"min":[0.0],"type":"SCALAR","name":"accessorAnimationInput"},{"bufferView":5,"byteOffset":3192,"componentType":5126,"count":67,"type":"VEC3","name":"accessorAnimationPositions"},{"bufferView":4,"byteOffset":1332,"componentType":5126,"count":67,"max":[3.33333325],"min":[0.0],"type":"SCALAR","name":"accessorAnimationInput"},{"bufferView":5,"byteOffset":3996,"componentType":5126,"count":67,"type":"VEC3","name":"accessorAnimationPositions"},{"bufferView":4,"byteOffset":1600,"componentType":5126,"count":67,"max":[3.33333325],"min":[0.0],"type":"SCALAR","name":"accessorAnimationInput"},{"bufferView":5,"byteOffset":4800,"componentType":5126,"count":67,"type":"VEC3","name":"accessorAnimationPositions"}],"bufferViews":[{"buffer":0,"byteLength":32568,"name":"bufferViewScalar"},{"buffer":0,"byteOffset":32568,"byteLength":390816,"byteStride":12,"name":"bufferViewFloatVec3"},{"buffer":0,"byteOffset":423384,"byteLength":260544,"byteStride":16,"name":"bufferViewFloatVec4"},{"buffer":0,"byteOffset":683928,"byteLength":130272,"byteStride":8,"name":"bufferViewFloatVec2"},{"buffer":0,"byteOffset":814200,"byteLength":1868,"name":"bufferViewAnimationFloatScalar"},{"buffer":0,"byteOffset":816068,"byteLength":5604,"name":"bufferViewAnimationFloatVec3"}],"buffers":[{"uri":"Smartphone.bin","byteLength":821672}],"materials":[{"pbrMetallicRoughness":{"baseColorFactor":[0.5,0.5,0.5,1.0],"baseColorTexture":{"index":1,"texCoord":0},"metallicFactor":1.0,"roughnessFactor":1.0,"metallicRoughnessTexture":{"index":2,"texCoord":0}},"normalTexture":{"index":0,"texCoord":0},"emissiveFactor":[0.0,0.0,0.0],"alphaMode":"BLEND","name":"M_Coque"},{"pbrMetallicRoughness":{"baseColorFactor":[0.5,0.5,0.5,1.0],"baseColorTexture":{"index":4,"texCoord":0},"metallicFactor":1.0,"roughnessFactor":1.0,"metallicRoughnessTexture":{"index":5,"texCoord":0}},"emissiveTexture":{"index":3,"texCoord":0},"emissiveFactor":[1.0,1.0,1.0],"alphaMode":"BLEND","name":"M_Screen"},{"pbrMetallicRoughness":{"baseColorFactor":[0.0392156877,0.105882362,0.0392156877,1.0],"metallicFactor":0.0,"roughnessFactor":0.0},"emissiveFactor":[0.0,0.0,0.0],"alphaMode":"OPAQUE","name":"M_Board"},{"pbrMetallicRoughness":{"baseColorFactor":[0.08235294,0.08235294,0.08235294,1.0],"metallicFactor":0.0,"roughnessFactor":0.3},"emissiveFactor":[0.0,0.0,0.0],"alphaMode":"OPAQUE","name":"M_Soc"},{"pbrMetallicRoughness":{"baseColorFactor":[0.0588235334,0.0588235334,0.0588235334,1.0],"metallicFactor":0.0,"roughnessFactor":0.3},"emissiveFactor":[0.0,0.0,0.0],"alphaMode":"OPAQUE","name":"M_Memory"},{"pbrMetallicRoughness":{"baseColorFactor":[0.0235294141,0.0235294141,0.0235294141,1.0],"metallicFactor":0.0,"roughnessFactor":0.4},"emissiveFactor":[0.0,0.0,0.0],"alphaMode":"OPAQUE","name":"M_Battery"},{"pbrMetallicRoughness":{"baseColorFactor":[0.5,0.5,0.5,1.0],"baseColorTexture":{"index":6,"texCoord":0},"metallicFactor":1.0,"roughnessFactor":1.0,"metallicRoughnessTexture":{"index":7,"texCoord":0}},"emissiveFactor":[0.0,0.0,0.0],"alphaMode":"OPAQUE","name":"M_FrontCamera"}],"textures":[{"sampler":0,"source":0,"name":"T_BodyB.jpg"},{"sampler":0,"source":1,"name":"T_BodyD.png"},{"sampler":0,"source":2,"name":"T_BodyMAR.jpg"},{"sampler":0,"source":3,"name":"T_SmartPhone_l.jpg"},{"sampler":0,"source":4,"name":"T_SmartPhone_d.png"},{"sampler":0,"source":5,"name":"T_SmartPhone_mar.jpg"},{"sampler":0,"source":6,"name":"T_FrontCamera_D.jpg"},{"sampler":0,"source":7,"name":"T_FrontCamera_MAR.jpg"}],"images":[{"uri":"T_BodyB.jpg"},{"uri":"T_BodyD.png"},{"uri":"T_BodyMAR.jpg"},{"uri":"T_SmartPhone_l.jpg"},{"uri":"T_SmartPhone_d.png"},{"uri":"T_SmartPhone_mar.jpg"},{"uri":"T_FrontCamera_D.jpg"},{"uri":"T_FrontCamera_MAR.jpg"}],"samplers":[{"magFilter":9729,"minFilter":9987,"wrapS":10497,"wrapT":10497}],"animations":[{"channels":[{"sampler":0,"target":{"node":1,"path":"translation"}},{"sampler":1,"target":{"node":2,"path":"translation"}},{"sampler":2,"target":{"node":3,"path":"translation"}},{"sampler":3,"target":{"node":4,"path":"translation"}},{"sampler":4,"target":{"node":5,"path":"translation"}},{"sampler":5,"target":{"node":6,"path":"translation"}},{"sampler":6,"target":{"node":7,"path":"translation"}},{"sampler":7,"target":{"node":8,"path":"translation"}}],"samplers":[{"input":40,"interpolation":"LINEAR","output":41},{"input":42,"interpolation":"LINEAR","output":43},{"input":44,"interpolation":"LINEAR","output":45},{"input":46,"interpolation":"LINEAR","output":47},{"input":48,"interpolation":"LINEAR","output":49},{"input":50,"interpolation":"LINEAR","output":51},{"input":52,"interpolation":"LINEAR","output":53},{"input":54,"interpolation":"LINEAR","output":55}],"name":"All Animations"}]}